<?xml version="1.0" encoding="UTF-8" standalone="no"?>
<!DOCTYPE svg PUBLIC "-//W3C//DTD SVG 1.1//EN" "http://www.w3.org/Graphics/SVG/1.1/DTD/svg11.dtd">
<!--Generated by Intaglio, www.PurgatoryDesign.com-->
<svg version="1.1" viewBox="107,71,182,276" width="182" height="276" xmlns="http://www.w3.org/2000/svg" xmlns:xlink="http://www.w3.org/1999/xlink"><path fill="#fffffe" stroke="#000100" d="M108,72 L288,72 L288,252 L108,252 L108,72 Z"/><path fill="none" stroke="#000100" d="M108,162 L288,162"/><path fill="none" stroke="#000100" d="M108,207 L288,207"/><text fill="#000100" font-family="Helvetica" font-size="12" transform="matrix(1.25,0,0,1.25,139.967,235.008)" xml:space="preserve"><tspan>Server (e.g. Thin)</tspan></text><text fill="#000100" font-family="Helvetica" font-size="12" transform="matrix(1.25,0,0,1.25,180.283,190.903)" xml:space="preserve"><tspan>Rack</tspan></text><text fill="#000100" font-family="Helvetica" font-weight="bold" font-size="12" transform="matrix(1.25,0,0,1.25,169.373,145.425)" xml:space="preserve"><tspan>Hoodoo</tspan></text><text fill="#000100" font-family="Helvetica" font-size="12" transform="matrix(1.25,0,0,1.25,134.766,98.6473)" xml:space="preserve"><tspan>Service Application</tspan></text><g><path fill="none" stroke="#fff" stroke-width="4" d="M130.5,274.5 L130.5,133.81"/><path fill="#fff" d="M123.5,134.685 L130.5,117.185 L137.5,134.685"/></g><g><path fill="none" stroke="#0049fd" stroke-width="2" d="M130.5,274.5 L130.5,129.06"/><path fill="#0049fd" d="M125.5,129.685 L130.5,117.185 L135.5,129.685"/></g><g><path fill="none" stroke="#fff" stroke-width="4" d="M266.346,117.185 L266.346,257.875"/><path fill="#fff" d="M273.346,257 L266.346,274.5 L259.346,257"/></g><g><path fill="none" stroke="#0049fd" stroke-width="2" d="M266.346,117.185 L266.346,262.625"/><path fill="#0049fd" d="M271.346,262 L266.346,274.5 L261.346,262"/></g><text fill="#000100" font-family="Helvetica" font-size="12" transform="matrix(0,1.25,-1.25,0,260.871,275.876)" xml:space="preserve"><tspan>Response</tspan></text><text fill="#000100" font-family="Helvetica" font-size="12" transform="matrix(0,-1.25,1.25,0,135.411,338.399)" xml:space="preserve"><tspan>Request</tspan></text><path fill="none" stroke="#000100" d="M108,117 L288,117"/></svg>
